<svg version="1.1" id="Layer_1" xmlns="http://www.w3.org/2000/svg" xmlns:xlink="http://www.w3.org/1999/xlink" x="0px" y="0px"
	 width="100%" viewBox="0 0 1024 1024" enable-background="new 0 0 1024 1024" xml:space="preserve">
<path fill="#000000" opacity="1.000000" stroke="none" 
	d="
M241.520294,521.525513 
	C242.789810,525.374268 244.087143,528.810730 245.061066,532.336609 
	C245.822800,535.094299 247.243896,535.805725 249.830444,534.766113 
	C256.202606,532.205017 262.999146,531.198669 269.603241,529.491699 
	C275.571533,527.949036 281.122070,532.056580 283.357086,539.443970 
	C285.284821,545.815796 283.821442,548.542419 277.111237,551.272522 
	C266.962219,555.401733 256.027802,556.021423 245.493088,558.423096 
	C229.893326,561.979431 215.105316,568.354736 199.461105,571.787048 
	C195.538940,572.647583 191.640488,573.569641 187.604355,572.882935 
	C184.738937,572.395508 181.922012,571.590881 181.031113,568.342407 
	C180.147995,565.122375 181.991806,562.897644 184.302078,561.070618 
	C188.381470,557.844421 192.927261,555.353210 197.759949,553.503479 
	C205.223175,550.646790 212.740509,547.916443 220.317657,545.379700 
	C223.473557,544.323059 224.946289,542.703125 224.781265,539.255432 
	C224.552444,534.474548 224.723785,529.674622 224.723785,524.767578 
	C223.440308,523.834412 221.945160,524.348938 220.524078,524.656006 
	C209.179718,527.107239 198.184784,524.800354 187.664246,521.127014 
	C170.520828,515.141113 162.749634,498.767059 166.208450,478.828033 
	C169.472672,460.010986 177.462799,443.387787 188.624817,428.107910 
	C194.528610,420.026093 199.811478,411.550537 204.675293,402.801239 
	C209.529861,394.068665 219.826172,389.018890 229.116211,392.372742 
	C256.204224,402.152039 277.539551,418.675049 286.031128,447.454468 
	C292.922150,470.809357 284.543213,491.452545 265.147125,504.625153 
	C258.766113,508.958771 251.766830,512.068787 244.917572,515.491089 
	C242.570160,516.664001 240.409393,517.919617 241.520294,521.525513 
M264.078796,453.153412 
	C257.468140,431.756683 243.201477,416.953888 223.863525,406.550415 
	C222.713333,405.931641 221.358719,405.655212 220.069778,405.339905 
	C217.383698,404.682861 215.570480,405.522766 214.795700,408.373444 
	C211.066849,422.092712 204.551102,434.704498 198.893677,447.638733 
	C193.747208,459.404846 192.029739,471.517181 193.263351,484.177704 
	C193.936188,491.083221 195.993729,493.728027 201.615005,493.882019 
	C227.364227,494.587433 247.044312,483.361450 261.754211,462.750397 
	C263.547302,460.237946 265.118500,457.328094 264.078796,453.153412 
z"/>
<path fill="#000000" opacity="1.000000" stroke="none" 
	d="
M635.396057,526.429199 
	C619.881042,537.963379 603.181946,545.146423 583.792908,544.057739 
	C568.155579,543.179688 555.862427,532.658142 550.966736,516.960876 
	C546.427612,502.406860 550.005493,488.591400 554.448914,474.914429 
	C559.735046,458.643372 569.321960,444.456818 577.283752,429.487335 
	C578.143250,427.871460 579.059692,426.285309 579.894470,424.657043 
	C584.542603,415.590302 593.634705,410.818085 603.362366,413.792603 
	C629.213440,421.697357 646.361511,439.064819 655.115967,464.427216 
	C662.597778,486.102692 657.410095,505.018463 640.991699,520.926575 
	C639.198547,522.664001 637.433777,524.430786 635.396057,526.429199 
M582.486328,514.851807 
	C606.134949,513.106750 624.532898,502.434143 637.506653,482.517609 
	C639.436401,479.555267 640.074585,476.508240 638.863464,473.047363 
	C631.939026,453.260010 618.715942,438.791321 600.713257,428.661896 
	C592.790527,424.204041 591.547668,425.094940 588.767578,433.785156 
	C588.564758,434.419373 588.307861,435.036255 588.103760,435.670105 
	C584.110229,448.071930 577.791504,459.490173 572.933167,471.529694 
	C568.062134,483.600647 566.695190,495.942352 569.126038,508.726349 
	C569.863831,512.606445 572.351624,514.385315 576.063599,514.708923 
	C577.885071,514.867737 579.724609,514.819885 582.486328,514.851807 
z"/>
<path fill="#000000" opacity="1.000000" stroke="none" 
	d="
M814.179810,504.254028 
	C807.942078,503.851379 805.844116,506.615417 805.063354,512.343384 
	C803.493347,523.860535 796.809998,532.685730 787.507080,539.193665 
	C776.931519,546.591797 765.557068,552.594116 752.297119,553.473389 
	C745.405090,553.930359 738.609131,552.728821 732.361145,549.805237 
	C725.500854,546.595093 722.801147,540.254761 721.931458,533.210266 
	C720.559448,522.096863 722.834656,511.701172 728.850281,502.149506 
	C738.215149,487.280029 750.243652,474.496033 761.446777,461.107269 
	C764.921509,456.954559 770.922913,454.333191 776.735046,454.143127 
	C782.528992,453.953674 786.357727,458.227509 789.741089,462.458618 
	C794.695068,468.653625 798.068298,475.710510 800.283691,483.280640 
	C801.325073,486.838989 802.890381,487.995758 806.774597,487.080627 
	C812.612732,485.705139 818.405579,484.244507 824.127625,482.452087 
	C827.185608,481.494171 828.681885,479.780701 828.926208,476.383514 
	C829.415222,469.584808 830.303955,462.809631 831.209961,456.049164 
	C831.493958,453.930359 832.227722,451.838379 832.998291,449.827087 
	C833.880859,447.523102 835.408997,445.665131 838.184875,445.973511 
	C840.992798,446.285461 842.752502,448.148438 843.156311,450.842865 
	C843.623413,453.960236 843.820679,457.141632 843.846375,460.297546 
	C843.984436,477.289124 844.132568,494.281738 844.067688,511.273224 
	C844.037842,519.088135 843.454773,526.899414 843.274353,534.715820 
	C843.198486,538.001343 842.448120,540.900391 839.006287,541.780945 
	C835.241211,542.744263 832.926880,540.168213 831.638611,537.176575 
	C828.765198,530.503906 828.424133,523.291260 827.914185,516.154785 
	C827.585266,511.550720 828.389709,506.889191 827.419861,502.065216 
	C822.878906,501.981842 818.959045,504.510101 814.179810,504.254028 
M783.046021,481.411621 
	C780.829224,477.506226 778.783020,473.490753 776.351868,469.723724 
	C773.408203,465.162842 772.257874,465.310547 769.609375,469.931976 
	C765.152222,477.709473 762.198914,486.272034 756.603882,493.481995 
	C751.409058,500.176270 746.113586,506.863586 742.240417,514.478455 
	C740.393005,518.110535 738.375427,521.737854 738.889465,527.017761 
	C752.818359,523.141418 766.726624,520.909485 778.603210,512.445618 
	C785.038574,507.859344 787.963440,501.876953 787.803040,494.167633 
	C787.708923,489.641815 785.132202,486.007141 783.046021,481.411621 
z"/>
<path fill="#000000" opacity="1.000000" stroke="none" 
	d="
M665.119934,469.196777 
	C666.079346,464.403320 669.016541,461.955353 673.134766,460.732788 
	C680.490601,458.549011 687.938538,456.543365 695.663879,456.904541 
	C699.578979,457.087616 701.045349,455.514496 701.626465,452.021332 
	C703.019531,443.647583 704.554565,435.296997 706.853943,427.112061 
	C707.257996,425.673950 707.621155,424.177643 708.318298,422.877075 
	C710.664185,418.500519 715.165161,418.446045 717.728455,422.676605 
	C719.179382,425.071350 719.277283,427.729309 719.247803,430.409912 
	C718.969421,455.724213 717.021118,480.919647 713.780518,506.018219 
	C712.502136,515.919189 711.153198,525.824219 708.270752,535.416016 
	C707.360840,538.443909 708.991150,539.955261 710.815857,541.802673 
	C718.084106,549.161133 722.634277,557.711914 719.974487,568.335266 
	C718.143494,575.648132 712.296692,580.409973 706.711060,584.791565 
	C698.932800,590.893066 690.172302,594.788086 679.808960,592.565857 
	C666.262878,589.661133 660.806030,581.592834 664.160522,568.177856 
	C667.392151,555.254272 673.458984,543.610413 682.150635,533.437195 
	C684.442017,530.755310 687.014404,528.309998 690.871704,528.192932 
	C692.496887,528.143616 693.446533,527.404053 693.522644,525.845764 
	C693.958679,516.927185 694.333618,508.005585 694.716675,499.367432 
	C692.328796,497.794098 690.695618,499.153442 689.013794,499.574768 
	C685.778992,500.385254 682.587708,501.329773 679.190063,500.578033 
	C676.141907,499.903656 673.322083,498.949188 672.592957,495.395386 
	C671.854248,491.795013 674.115173,489.781006 676.755737,488.152771 
	C682.706421,484.483429 688.726868,480.927338 694.706360,477.304321 
	C695.624939,476.747711 697.062256,476.670807 696.962280,474.482086 
	C691.687256,474.196686 686.686157,476.283997 681.508057,476.560730 
	C679.523193,476.666809 677.565369,477.204071 675.581116,477.409515 
	C669.398499,478.049591 666.446960,475.822845 665.119934,469.196777 
M681.223572,564.011597 
	C681.119019,565.641663 681.958252,566.151489 683.371399,565.625977 
	C685.693481,564.762451 688.018738,563.880249 690.258667,562.827209 
	C702.877258,556.895081 703.538513,552.997437 693.657227,543.096680 
	C693.455566,542.894592 693.055298,542.890686 692.264038,542.642883 
	C687.861328,549.055054 683.889587,555.809875 681.223572,564.011597 
z"/>
<path fill="#000000" opacity="1.000000" stroke="none" 
	d="
M403.102112,502.256927 
	C402.464050,509.425507 398.203033,512.717285 391.676178,511.723083 
	C382.204010,510.280243 375.176514,504.102661 367.399872,499.369934 
	C365.434448,498.173798 363.700928,496.551117 361.063141,496.018646 
	C358.672302,499.726807 358.574799,504.186554 357.322571,508.227173 
	C355.358124,514.566040 352.553680,520.655029 351.649780,527.338074 
	C351.214661,530.555359 349.143341,532.837585 345.804230,533.384216 
	C342.093842,533.991638 339.232697,532.311890 337.424286,529.180908 
	C333.556671,522.484619 332.023315,515.168030 333.063751,507.541199 
	C333.499298,504.348511 332.641937,502.600494 329.991547,501.070221 
	C325.651703,498.564514 322.645264,494.486603 318.654846,490.167114 
	C315.357361,498.825226 313.280609,506.967010 311.375580,515.132141 
	C310.511627,518.835144 310.487335,522.725891 309.867859,526.496338 
	C309.253357,530.236450 308.049042,534.152832 303.668213,534.514160 
	C299.179565,534.884399 296.681946,531.439148 295.687134,527.551331 
	C292.467590,514.968506 291.109833,502.272461 295.693817,489.698090 
	C300.738647,475.859528 307.500427,462.872833 316.049866,450.871979 
	C318.405334,447.565613 321.004700,443.054626 325.946381,445.357483 
	C330.704834,447.575043 329.458893,452.405273 328.454773,456.462585 
	C327.177094,461.625336 325.768463,466.774445 324.041046,471.800446 
	C322.918304,475.067078 323.433136,477.566467 325.797485,479.963837 
	C329.157959,483.371185 332.175293,487.161865 336.865051,489.473083 
	C339.174500,486.318207 339.667847,482.613892 340.822296,479.244446 
	C345.948669,464.282318 354.646851,451.611206 365.414948,440.247223 
	C367.749725,437.783234 370.606964,435.428131 374.183838,437.418152 
	C377.989899,439.535706 377.523499,443.229675 376.315002,446.717194 
	C374.080475,453.165527 371.867279,459.629120 369.345642,465.967194 
	C367.755310,469.964355 368.424255,472.485107 371.996338,475.295227 
	C378.831360,480.672424 385.884247,485.654541 393.540924,489.713226 
	C398.626404,492.408905 401.740143,496.345184 403.102112,502.256927 
z"/>
<path fill="#000000" opacity="1.000000" stroke="none" 
	d="
M493.655823,539.566895 
	C492.479980,552.786194 491.401978,565.555359 490.295471,578.322083 
	C490.180878,579.644043 490.017975,580.984497 489.668304,582.258972 
	C488.715088,585.733521 486.761780,588.444336 482.889832,588.596985 
	C479.171997,588.743652 477.224060,586.121643 476.071594,582.975525 
	C473.213623,575.173645 473.396393,566.943604 472.844788,558.820984 
	C472.669189,556.235229 473.274261,553.566650 472.101349,550.451233 
	C464.280334,555.930664 456.162598,560.016357 447.510712,562.952515 
	C440.882477,565.201965 434.179840,567.199951 427.073486,567.261902 
	C422.453369,567.302124 418.902527,565.714905 417.414276,561.005310 
	C415.955078,556.387634 418.209106,553.093445 421.816437,550.861816 
	C433.736328,543.487671 446.351685,537.413391 459.194580,531.852051 
	C464.145477,529.708191 469.285736,530.345764 474.427948,533.466003 
	C475.600037,528.464783 476.624725,524.130188 477.630890,519.791321 
	C479.817749,510.360931 482.769958,501.167480 486.285095,492.156647 
	C487.768555,488.353851 489.542542,484.059204 494.573914,485.234009 
	C499.899597,486.477509 499.557373,491.301941 499.052277,495.513580 
	C497.704865,506.747772 496.156952,517.957764 494.738739,529.183777 
	C494.321869,532.483704 494.071960,535.804688 493.655823,539.566895 
z"/>
<path fill="#000000" opacity="1.000000" stroke="none" 
	d="
M261.351349,562.270203 
	C266.966125,565.908630 269.018555,571.015259 267.725403,577.496155 
	C266.384735,584.215332 262.754578,589.779663 258.792175,595.181641 
	C256.688110,598.050110 254.222977,600.701172 252.493011,604.682922 
	C258.198059,603.816284 262.631439,601.669434 267.037964,599.425171 
	C269.702667,598.067932 272.324951,596.581482 275.101868,595.501648 
	C278.877655,594.033325 282.350708,594.601379 284.868927,598.111084 
	C287.514374,601.798096 286.790100,605.308777 284.116730,608.639587 
	C283.596558,609.287659 283.104706,610.029907 282.431519,610.473206 
	C270.041534,618.632996 257.387543,625.683228 241.575577,622.137207 
	C230.575623,619.670288 223.169220,609.789062 232.813919,598.325867 
	C236.137085,594.376099 239.460892,590.424622 242.880814,586.559204 
	C246.179153,582.831238 249.601974,579.213501 252.535812,574.873901 
	C251.413742,575.544983 250.268356,576.180298 249.173309,576.892944 
	C241.397034,581.953613 233.011322,585.462646 223.800049,586.852417 
	C218.794022,587.607666 215.393311,585.569946 214.132950,581.137085 
	C212.684769,576.043640 214.186386,572.659546 219.164459,570.752014 
	C229.280136,566.875793 239.607437,563.627991 250.186508,561.269470 
	C253.807022,560.462219 257.480042,560.667419 261.351349,562.270203 
z"/>
<path fill="#000000" opacity="1.000000" stroke="none" 
	d="
M355.800507,534.124451 
	C357.465698,526.180054 359.563232,518.816895 362.902252,511.872498 
	C364.422485,508.710724 366.556488,505.857635 370.594238,507.124207 
	C374.752441,508.428528 374.916168,511.867706 374.541199,515.697388 
	C373.670166,524.594177 372.621887,533.509644 373.515045,542.966492 
	C377.469452,541.805847 381.010956,540.303345 384.817719,539.978760 
	C392.206451,539.348694 395.159454,542.263367 395.185638,549.597168 
	C395.210205,556.472961 392.256653,561.282288 386.381378,564.694153 
	C374.705414,571.474731 362.152435,575.683228 348.893066,577.909607 
	C346.756744,578.268372 344.584198,578.328979 342.439880,577.770081 
	C338.506500,576.744812 336.058380,574.131226 335.129303,570.316040 
	C334.231659,566.629822 336.030518,563.683167 338.960144,561.739380 
	C342.696472,559.260437 346.614838,557.001099 350.645508,555.038940 
	C353.567444,553.616577 355.019775,551.812256 354.763733,548.481079 
	C354.404694,543.809875 355.056244,539.174072 355.800507,534.124451 
z"/>
<path fill="#000000" opacity="1.000000" stroke="none" 
	d="
M413.993958,496.201660 
	C416.260193,487.340973 420.445312,479.688293 424.149017,471.891022 
	C427.236481,465.391113 433.255981,464.313568 440.358551,466.279938 
	C454.662872,470.240051 459.790405,480.786835 461.831970,493.977448 
	C462.313232,497.086884 461.262451,499.973175 460.148773,502.711212 
	C455.849304,513.281616 450.466248,522.698792 438.265839,526.230530 
	C424.540588,530.203674 409.966919,517.643250 412.374878,503.426208 
	C412.763916,501.129333 413.375458,498.870148 413.993958,496.201660 
M431.008789,510.087219 
	C436.888794,508.474335 442.301117,506.346039 445.012878,500.125275 
	C449.710846,489.348206 444.810333,481.088348 435.314941,475.067657 
	C431.755280,472.810486 429.790405,473.388611 428.988770,478.046295 
	C428.150482,482.916840 426.408478,487.635651 425.003876,492.403870 
	C423.633057,497.057281 424.276398,501.624207 425.664246,506.102417 
	C426.339722,508.282135 427.153290,510.688934 431.008789,510.087219 
z"/>
</svg>